<svg xmlns="http://www.w3.org/2000/svg" xmlns:xlink="http://www.w3.org/1999/xlink" width="450px" height="450px" viewBox="0 0 450 450" zoomAndPan="disable">
    <style type="text/css"><![CDATA[
		line {
			stroke: rgba(255, 255, 255, 0.075);
			stroke-width: 1px;
		}
    ]]></style>

  <line x1="-360" y1="0" x2="90"  y2="450" />
	<line x1="-270" y1="0" x2="180" y2="450" />
	<line x1="-180" y1="0" x2="270" y2="450" />
	<line x1="-90"  y1="0" x2="360" y2="450" />
	<line x1="0"    y1="0" x2="450" y2="450" />
	<line x1="90"   y1="0" x2="540" y2="450" />
	<line x1="180"  y1="0" x2="630" y2="450" />
	<line x1="270"  y1="0" x2="720" y2="450" />
	<line x1="360"  y1="0" x2="810" y2="450" />

	<line x1="90"  y1="0" x2="-360" y2="450" />
	<line x1="180" y1="0" x2="-270" y2="450" />
	<line x1="270" y1="0" x2="-180" y2="450" />
	<line x1="360" y1="0" x2="-90"  y2="450" />
	<line x1="450" y1="0" x2="0"    y2="450" />
	<line x1="540" y1="0" x2="90"   y2="450" />
	<line x1="630" y1="0" x2="180"  y2="450" />
	<line x1="720" y1="0" x2="270"  y2="450" />
	<line x1="810" y1="0" x2="360"  y2="450" />

</svg>